# xmcd
#
# Track frame offsets: 
#        150
#        4423
#        29769
#        47498
#        62441
#        75532
#        89482
#        102755
#        118301
#        131870
#        155682
#        173050
#        186160
#        203926
#        220251
#        226504
#        243951
#        258469
#        284927
#        292860
#        313666
#        337487
#
# Disc length: 4570 seconds
#
# Revision: 0
# Processed by: cddbd v1.5.2PL0 Copyright (c) Steve Scherf et al.
# Submitted via: ExactAudioCopy v0.99pb3
#
DISCID=4d11d816
DTITLE=Emmylou Harris - Strawberry Music Festival
DYEAR=1990
DGENRE=Country
TTITLE0=Intro
TTITLE1=Roses In The Snow
TTITLE2=Even Cowgirls Get The Blues
TTITLE3=Beneath Still Waters
TTITLE4=Heartbreak Hill
TTITLE5=Amarillo
TTITLE6=Instrumental
TTITLE7=The Other Side Of This Life
TTITLE8=Green Pastures
TTITLE9=Two More Bottles Of Wine
TTITLE10=Hello Stranger
TTITLE11=If I Needed You
TTITLE12=One Of These Days
TTITLE13=Born To Run
TTITLE14=Price I Pay
TTITLE15=Band Intros
TTITLE16=Sweet Dreams
TTITLE17=Leaving Louisiana
TTITLE18=Crowd
TTITLE19=Poncho And Lefty
TTITLE20=Jambalaya
TTITLE21=Goodnight...
EXTD=
EXTT0=
EXTT1=
EXTT2=
EXTT3=
EXTT4=
EXTT5=
EXTT6=
EXTT7=
EXTT8=
EXTT9=
EXTT10=
EXTT11=
EXTT12=
EXTT13=
EXTT14=
EXTT15=
EXTT16=
EXTT17=
EXTT18=
EXTT19=
EXTT20=
EXTT21=
PLAYORDER=
